<?xml version="1.0" encoding="UTF-8" standalone="no"?>
<!DOCTYPE svg PUBLIC "-//W3C//DTD SVG 1.1//EN" "http://www.w3.org/Graphics/SVG/1.1/DTD/svg11.dtd">
<svg width="100%" height="100%" viewBox="0 0 2859 2859" version="1.1" xmlns="http://www.w3.org/2000/svg" xmlns:xlink="http://www.w3.org/1999/xlink" xml:space="preserve" xmlns:serif="http://www.serif.com/" style="fill-rule:evenodd;clip-rule:evenodd;stroke-linejoin:round;stroke-miterlimit:2;">
    <g transform="matrix(1,0,0,1,-593.875,-4398.13)">
        <g transform="matrix(1.25617,0,0,1.07233,139,4219)">
            <g transform="matrix(2.93497,0,0,3.43812,3204.63,3392.34)">
                <g>
                    <path d="M-259.9,-534.9L-287.4,-534.9L-287.2,-535.2L-287.2,-542.3L-275,-552.6C-272.6,-554.7 -271.1,-556.1 -271.1,-557.8C-271.1,-559.4 -272.1,-560.4 -273.6,-560.4C-275.4,-560.4 -276.8,-559.2 -277,-556.4L-287.6,-558.3C-287.2,-565.3 -281.8,-569.4 -274,-569.4C-266.2,-569.4 -260.6,-565.3 -260.6,-557.8C-260.6,-553.1 -263.4,-550.6 -267.1,-547.5L-270.9,-544.4L-260,-544.4L-260,-534.9L-259.9,-534.9Z" style="fill:rgb(24,41,103);fill-rule:nonzero;"/>
                    <path d="M-230.5,-539.8L-230.5,-534.9L-240.6,-534.9L-240.6,-539.8L-257.2,-539.8L-257.2,-549.6L-243.1,-568.5L-230.5,-568.5L-230.5,-548.7L-226.6,-548.7L-226.6,-539.8L-230.5,-539.8ZM-240.6,-557.6L-247,-548.6L-240.6,-548.6L-240.6,-557.6Z" style="fill:rgb(24,41,103);fill-rule:nonzero;"/>
                </g>
                <g>
                    <path d="M-905.7,-534.9L-933.2,-534.9L-933,-535.2L-933,-542.3L-920.8,-552.6C-918.4,-554.7 -916.9,-556.1 -916.9,-557.8C-916.9,-559.4 -917.9,-560.4 -919.4,-560.4C-921.2,-560.4 -922.6,-559.2 -922.8,-556.4L-933.4,-558.3C-933,-565.3 -927.6,-569.4 -919.8,-569.4C-912,-569.4 -906.4,-565.3 -906.4,-557.8C-906.4,-553.1 -909.2,-550.6 -912.9,-547.5L-916.7,-544.4L-905.8,-544.4L-905.8,-534.9L-905.7,-534.9Z" style="fill:rgb(24,41,103);fill-rule:nonzero;"/>
                    <path d="M-872.3,-551.6C-872.3,-541.1 -878.5,-534.1 -887.8,-534.1C-897.2,-534.1 -903.4,-541.1 -903.4,-551.6C-903.4,-562.1 -897.2,-569.1 -887.8,-569.1C-878.5,-569.1 -872.3,-562.1 -872.3,-551.6ZM-883.4,-551.6C-883.4,-557.1 -885.2,-559.9 -887.8,-559.9C-890.5,-559.9 -892.3,-557.1 -892.3,-551.6C-892.3,-546 -890.5,-543.3 -887.8,-543.3C-885.2,-543.3 -883.4,-546.1 -883.4,-551.6Z" style="fill:rgb(24,41,103);fill-rule:nonzero;"/>
                </g>
                <g>
                    <path d="M-781.1,-759.4L-792.6,-745.9L-831.4,-764.3L-807.2,-728.8L-818.6,-715.4L-882,-744.4L-871,-757.3L-831.3,-738.8L-856,-775L-845.8,-787L-806.2,-768.3L-830.7,-804.7L-819.6,-817.6L-781.1,-759.4Z" style="fill:rgb(24,41,103);fill-rule:nonzero;"/>
                    <path d="M-711,-808.7L-755.3,-780.9L-791,-837.7L-747,-865.3L-739.4,-853.3L-769.4,-834.4L-762.7,-823.7L-735.1,-841L-728,-829.6L-755.6,-812.3L-748.9,-801.6L-718.6,-820.6L-711,-808.7Z" style="fill:rgb(24,41,103);fill-rule:nonzero;"/>
                    <path d="M-657.1,-880L-671.6,-871.9C-674.7,-877.5 -680.6,-878.9 -685.6,-877.3C-690.8,-875.6 -693.3,-871.7 -692.1,-868.1C-691.3,-865.5 -689.5,-864 -685.2,-864.4L-671,-865.7C-659.1,-866.8 -650.7,-862.8 -647.5,-852.7C-643.1,-839.1 -653,-828.1 -667.2,-823.6C-681.6,-819 -695.6,-822.1 -701.3,-834L-686.1,-842.3C-682.4,-836.2 -676.9,-834.8 -670.5,-836.9C-664.6,-838.8 -661.9,-842.6 -663.2,-846.5C-664.1,-849.4 -666,-850.7 -670.9,-850.2L-685.2,-848.8C-695,-848 -704.6,-850.2 -708.3,-861.8C-712.3,-874.2 -704.4,-885.2 -689.4,-890C-675.5,-894.5 -663.2,-890.9 -657.1,-880Z" style="fill:rgb(24,41,103);fill-rule:nonzero;"/>
                    <path d="M-593.5,-890.9L-590.3,-838.3L-606.7,-837.3L-609.9,-889.9L-631.6,-888.6L-632.5,-903L-572.7,-906.6L-571.8,-892.2L-593.5,-890.9Z" style="fill:rgb(24,41,103);fill-rule:nonzero;"/>
                    <path d="M-468.4,-816.9L-518.2,-832.7L-498,-896.7L-448.4,-881L-452.7,-867.4L-486.5,-878.1L-490.3,-866.1L-459.3,-856.3L-463.3,-843.5L-494.3,-853.3L-498.1,-841.3L-464,-830.5L-468.4,-816.9Z" style="fill:rgb(24,41,103);fill-rule:nonzero;"/>
                    <path d="M-397.2,-774.6L-408.6,-782L-415.9,-833.1L-437.1,-800.5L-451,-809.5L-414.4,-865.7L-402.9,-858.2L-396.3,-806.1L-374.5,-839.7L-360.7,-830.7L-397.2,-774.6Z" style="fill:rgb(24,41,103);fill-rule:nonzero;"/>
                    <path d="M-314.1,-784.8C-299.7,-768 -300.5,-748.1 -315.6,-735.1C-330.7,-722.1 -350.6,-724.3 -365,-741.1L-382.3,-761.2L-331.4,-804.9L-314.1,-784.8ZM-354.5,-750.8C-346.3,-741.3 -335.2,-740 -326.4,-747.6C-317.6,-755.2 -317.2,-766.4 -325.3,-775.9L-331.4,-783L-360.6,-757.9L-354.5,-750.8Z" style="fill:rgb(24,41,103);fill-rule:nonzero;"/>
                </g>
                <g>
                    <g>
                        <g>
                            <path d="M-430.4,-787L-428.3,-775.7C-356.2,-726.8 -308.8,-644.2 -308.8,-550.4C-308.8,-400.2 -430.6,-278.4 -580.8,-278.4C-731,-278.4 -852.8,-400.2 -852.8,-550.4C-852.8,-644.1 -805.4,-726.7 -733.3,-775.7L-731.2,-787C-809.3,-737.2 -861.1,-649.9 -861.1,-550.4C-861.1,-395.6 -735.6,-270.1 -580.7,-270.1C-425.9,-270.1 -300.4,-395.6 -300.4,-550.4C-300.5,-649.9 -352.3,-737.3 -430.4,-787ZM-580.8,-830.8C-628.9,-830.8 -674.2,-818.7 -713.7,-797.3L-707.4,-791.3C-669.6,-811.2 -626.5,-822.5 -580.8,-822.5C-535.1,-822.5 -492,-811.2 -454.2,-791.3L-447.9,-797.3C-487.4,-818.7 -532.7,-830.8 -580.8,-830.8Z" style="fill:rgb(24,41,103);fill-rule:nonzero;"/>
                        </g>
                        <g>
                            <path d="M-603.3,-305.6C-728.6,-317 -826.7,-422.3 -826.7,-550.5C-826.7,-625.4 -793.2,-692.5 -740.4,-737.6L-734.7,-768.6C-803.1,-720.3 -847.8,-640.6 -847.8,-550.5C-847.8,-403.2 -728.5,-283.9 -581.4,-283.6L-603.3,-305.6ZM-427,-768.5L-421.3,-737.5C-368.5,-692.4 -335,-625.3 -335,-550.4C-335,-422.2 -433.1,-316.9 -558.4,-305.5L-580.4,-283.5C-433.2,-283.8 -314,-403.1 -314,-550.4C-313.9,-640.5 -358.6,-720.2 -427,-768.5ZM-580.8,-817.3C-625,-817.3 -666.7,-806.5 -703.5,-787.5L-687.4,-772.1L-687.3,-772C-655.1,-787.5 -619,-796.2 -580.8,-796.2C-542.7,-796.2 -506.5,-787.5 -474.3,-772L-474.2,-772.1L-458.1,-787.5C-494.9,-806.6 -536.6,-817.3 -580.8,-817.3Z" style="fill:rgb(24,41,103);fill-rule:nonzero;"/>
                        </g>
                        <g>
                            <path d="M-580.8,-938.1C-794.9,-938.1 -968.5,-764.5 -968.5,-550.4C-968.5,-336.3 -794.9,-162.7 -580.8,-162.7C-366.7,-162.7 -193.1,-336.3 -193.1,-550.4C-193.1,-764.5 -366.7,-938.1 -580.8,-938.1ZM-580.8,-183.2C-783.6,-183.2 -948,-347.6 -948,-550.4C-948,-753.2 -783.6,-917.6 -580.8,-917.6C-378,-917.6 -213.6,-753.2 -213.6,-550.4C-213.6,-347.6 -378,-183.2 -580.8,-183.2Z" style="fill:rgb(24,41,103);fill-rule:nonzero;"/>
                        </g>
                    </g>
                    <g>
                        <g>
                            <g>
                                <path d="M-580.8,-290.8L-710.5,-420.1L-674.1,-439L-744,-442.2L-735.9,-480.6L-717.4,-484.1L-717.9,-460.2L-651.4,-452.6L-669.3,-409.7L-580.8,-290.8Z" style="fill:rgb(24,41,103);fill-rule:nonzero;"/>
                            </g>
                            <g>
                                <path d="M-365.8,-486.4L-448.3,-489.6L-521.1,-455.6L-535.6,-428.9L-560.3,-410.1L-580.8,-348.3L-601.3,-410.1L-626,-428.9L-640.5,-455.6L-713.3,-489.6L-795.8,-486.4L-705.9,-506.9L-629.8,-466.6L-612.6,-441.5L-580.8,-426.6L-549,-441.5L-531.8,-466.6L-455.7,-506.9L-365.8,-486.4Z" style="fill:rgb(24,41,103);fill-rule:nonzero;"/>
                            </g>
                            <g>
                                <path d="M-422.8,-593.1L-498.5,-676.1L-452.6,-725.1L-467.2,-657L-438.3,-616.2L-422.8,-720.4L-437.7,-799.6L-528.5,-711.6L-633,-711.6L-723.9,-799.6L-738.8,-720.4L-723.3,-616.2L-694.4,-657L-709,-725.1L-663.1,-676.1L-738.8,-593.1L-781.9,-504.8L-702.5,-520.3L-623.7,-469.5L-604.7,-477.7L-580.8,-449.1L-556.9,-477.7L-537.9,-469.5L-459.1,-520.3L-379.7,-504.8L-422.8,-593.1ZM-580.8,-704.7L-536.7,-703.8L-580.8,-661L-624.9,-703.8L-580.8,-704.7ZM-621,-485L-696.6,-531.3L-749.6,-526.6L-737.5,-558.4L-655.5,-540.4L-726.3,-585.5L-712.3,-602.2L-617,-552.2L-621,-485ZM-558.3,-486.4L-580.8,-488.2L-603.3,-486.4L-596.3,-569.7L-684.7,-635.1L-638.5,-690.4L-645.3,-695.6L-658.1,-681.4L-715.3,-736L-719.2,-671.5L-730.2,-723.3L-721.4,-753.2L-580.9,-651.9L-440.4,-753.2L-431.6,-723.3L-442.6,-671.5L-446.5,-736L-503.7,-681.4L-516.5,-695.6L-523.3,-690.4L-477.1,-635.1L-565.5,-569.7L-558.3,-486.4ZM-465,-531.3L-540.6,-485L-544.7,-552.2L-449.4,-602.2L-435.4,-585.5L-506.2,-540.4L-424.3,-558.4L-412.2,-526.6L-465,-531.3Z" style="fill:rgb(24,41,103);fill-rule:nonzero;"/>
                            </g>
                            <g>
                                <path d="M-508.6,-665.4L-580.8,-588.2L-653,-665.4L-648.3,-671.1L-580.8,-611.9L-513.3,-671.1L-508.6,-665.4Z" style="fill:rgb(24,41,103);fill-rule:nonzero;"/>
                            </g>
                            <g>
                                <path d="M-487.5,-439L-451.1,-420.1L-580.8,-290.8L-492.3,-409.7L-510.2,-452.6L-443.8,-460.2L-444.2,-484.1L-425.8,-480.6L-417.6,-442.2L-487.5,-439Z" style="fill:rgb(24,41,103);fill-rule:nonzero;"/>
                            </g>
                        </g>
                    </g>
                </g>
                <g>
                    <path d="M-810.1,-340.2L-821.5,-350C-817.6,-354.4 -818.3,-359.9 -821.3,-363.7C-824.4,-367.6 -828.5,-368.5 -831.2,-366.4C-833.1,-364.9 -833.9,-362.9 -832.2,-359.4L-826.6,-347.7C-822,-337.9 -822.7,-329.5 -830.3,-323.6C-840.6,-315.6 -853,-320.6 -861.3,-331.3C-869.7,-342.1 -871.5,-355.1 -863.1,-363.7L-851.2,-353.3C-855.2,-348.2 -854.7,-343.1 -850.9,-338.3C-847.4,-333.9 -843.4,-332.8 -840.4,-335.1C-838.2,-336.8 -837.7,-338.8 -839.6,-342.9L-845.3,-354.6C-849.1,-362.7 -850.2,-371.5 -841.4,-378.4C-832.1,-385.7 -820.2,-382.5 -811.4,-371.2C-803.5,-360.5 -802.8,-348.8 -810.1,-340.2Z" style="fill:rgb(24,41,103);fill-rule:nonzero;"/>
                    <path d="M-770.8,-326.3C-760.5,-317.2 -759.6,-305.2 -767.9,-295.7C-776.4,-286.1 -788.7,-285.6 -799.3,-294.9L-810.1,-304.4L-822.4,-290.4L-833.7,-300.3L-793.5,-346.1L-770.8,-326.3ZM-791.8,-305.1C-787.4,-301.3 -782.5,-301.4 -779.1,-305.3C-775.9,-309 -776.2,-313.9 -780.6,-317.8L-790.6,-326.6L-801.8,-313.9L-791.8,-305.1Z" style="fill:rgb(24,41,103);fill-rule:nonzero;"/>
                    <path d="M-711.4,-251.6C-720.1,-236.1 -739.4,-230.9 -755.3,-239.9C-771.2,-248.8 -776.7,-268 -768,-283.5C-759.2,-299 -739.9,-304.3 -724,-295.4C-708.2,-286.5 -702.7,-267.2 -711.4,-251.6ZM-724.5,-259C-719.4,-268.1 -722.2,-278.6 -730.8,-283.4C-739.4,-288.3 -749.8,-285.2 -755,-276.1C-760.1,-267.1 -757.3,-256.7 -748.6,-251.8C-739.9,-247 -729.6,-250 -724.5,-259Z" style="fill:rgb(24,41,103);fill-rule:nonzero;"/>
                    <path d="M-674.4,-207.9L-685.8,-233.3L-690,-234.6L-696.2,-214.6L-710.5,-219L-692.4,-277.2L-662.9,-268.1C-650.3,-264.2 -644.3,-254 -647.9,-242.6C-650.9,-233 -658.9,-228 -668.9,-228.8L-657.1,-202.5L-674.4,-207.9ZM-672.7,-242.4C-667.6,-240.8 -663.4,-242.6 -662.1,-246.8C-660.8,-251 -663.2,-254.8 -668.4,-256.4L-682,-260.6L-686.3,-246.6L-672.7,-242.4Z" style="fill:rgb(24,41,103);fill-rule:nonzero;"/>
                    <path d="M-609.8,-244.8L-615.4,-197.3L-630.2,-199L-624.6,-246.5L-644.2,-248.8L-642.7,-261.8L-588.7,-255.4L-590.2,-242.4L-609.8,-244.8Z" style="fill:rgb(24,41,103);fill-rule:nonzero;"/>
                    <path d="M-537.1,-242.4L-551.6,-238.5C-553,-244.2 -557.9,-246.7 -562.7,-246.4C-567.7,-246.1 -570.7,-243.2 -570.5,-239.7C-570.4,-237.2 -569.2,-235.5 -565.3,-234.9L-552.5,-232.8C-541.8,-231.1 -535.3,-225.7 -534.7,-216.1C-533.9,-203.1 -545.1,-195.7 -558.6,-194.9C-572.3,-194.1 -584,-200 -586.3,-211.8L-571,-215.7C-569.1,-209.5 -564.6,-207.1 -558.5,-207.4C-552.9,-207.7 -549.7,-210.5 -549.9,-214.2C-550.1,-216.9 -551.4,-218.6 -555.9,-219.2L-568.8,-221.2C-577.6,-222.7 -585.5,-226.8 -586.2,-237.8C-586.9,-249.6 -577.5,-257.5 -563.3,-258.4C-550,-259.3 -540,-253.3 -537.1,-242.4Z" style="fill:rgb(24,41,103);fill-rule:nonzero;"/>
                    <path d="M-443.1,-246.7C-440.8,-231.3 -449.5,-218.9 -464.3,-213.8C-481.4,-207.9 -499.5,-216.4 -505.3,-233.4C-511.1,-250.3 -502.1,-268.2 -485,-274C-470.8,-278.9 -455.9,-274.6 -448.4,-261.8L-461.1,-253.5C-465.9,-261.5 -473.1,-263.5 -480.5,-261C-489.6,-257.9 -494.4,-248 -491.1,-238.2C-487.8,-228.4 -477.9,-223.5 -468.7,-226.6C-461.4,-229.1 -456.9,-235.3 -458,-244.8L-443.1,-246.7Z" style="fill:rgb(24,41,103);fill-rule:nonzero;"/>
                    <path d="M-382.4,-255.4L-421.3,-232.8L-451.9,-285.5L-438.9,-293L-414.8,-251.6L-388.8,-266.7L-382.4,-255.4Z" style="fill:rgb(24,41,103);fill-rule:nonzero;"/>
                    <path d="M-347,-319.8C-335.6,-306.5 -336.4,-290.9 -348.7,-280.3C-361.3,-269.5 -377.1,-270.9 -388.5,-284.2L-410.3,-309.6L-398.9,-319.4L-377.1,-294C-371.1,-287 -363.5,-285.9 -357.7,-290.8C-352.2,-295.5 -352.3,-303 -358.4,-310L-380.2,-335.4L-368.8,-345.2L-347,-319.8Z" style="fill:rgb(24,41,103);fill-rule:nonzero;"/>
                    <path d="M-316.5,-363C-312.7,-367.2 -305.5,-369.3 -298.2,-363.6C-290.2,-357.4 -288.9,-347.7 -297.1,-337.2L-316.6,-312.3L-364.6,-349.9L-345.1,-374.8C-338.2,-383.6 -328.5,-385.2 -320.6,-379.1C-314,-373.9 -314.5,-366.8 -316.7,-363.3L-316.5,-363ZM-335.6,-346.2L-327.5,-356.5C-324.8,-360 -325.1,-364 -328.3,-366.5C-331.3,-368.9 -335.1,-368 -337.5,-365L-345.9,-354.3L-335.6,-346.2ZM-308.3,-342.6C-305.3,-346.4 -305.8,-350.1 -309.1,-352.7C-312.3,-355.2 -316.1,-354.4 -318.7,-351.1L-327.5,-339.9L-317,-331.7L-308.3,-342.6Z" style="fill:rgb(24,41,103);fill-rule:nonzero;"/>
                </g>
            </g>
        </g>
    </g>
</svg>
